ffmpeg started on 2025-06-05 at 19:32:58
Report written to "D:\Convert\FFMetrics\reports\ssim_report-6.txt"
Log level: 32
Command line:
ffmpeg -hide_banner -nostdin -i "G:\\\xc0\xed\xe8\xec\xe5\\\xce\xed\xe3\xee\xe8\xed\xe3\xe8\\!_36_\xce\xf1\xe5\xed\xfc_2024\\DreamCast\\\xcd\xe0\xef\xe0\xe4\xe5\xed\xe8\xe5 \xee\xe4\xe8\xed\xee\xf7\xea\xe8 \xed\xe0 \xe8\xed\xee\xe9 \xec\xe8\xf0\\[DC] Hitoribocchi no Isekai Kouryaku - 02_Telegram_HEVC.mkv" -i "G:\\\xc0\xed\xe8\xec\xe5\\\xce\xed\xe3\xee\xe8\xed\xe3\xe8\\!_36_\xce\xf1\xe5\xed\xfc_2024\\DreamCast\\\xcd\xe0\xef\xe0\xe4\xe5\xed\xe8\xe5 \xee\xe4\xe8\xed\xee\xf7\xea\xe8 \xed\xe0 \xe8\xed\xee\xe9 \xec\xe8\xf0\\[DC] Hitoribocchi no Isekai Kouryaku - 02_Telegram.mp4" -lavfi "[0:v]settb=AVTB,setpts=PTS-STARTPTS,format=pix_fmts=yuv420p10,fps=24000/1001,scale=1920:1080:flags=bicubic[main];[1:v]settb=AVTB,setpts=PTS-STARTPTS,format=pix_fmts=yuv420p,fps=24000/1001,scale=1920:1080:flags=bicubic[ref];[main][ref]ssim=eof_action=endall:stats_file='D\\:/Convert/FFMetrics/logs/ssim_logfile-6.txt'" -f null -
Input #0, matroska,webm, from 'G:\Аниме\Онгоинги\!_36_Осень_2024\DreamCast\Нападение одиночки на иной мир\[DC] Hitoribocchi no Isekai Kouryaku - 02_Telegram_HEVC.mkv':
  Metadata:
    COMPATIBLE_BRANDS: isomiso2avc1mp41
    MAJOR_BRAND     : isom
    MINOR_VERSION   : 512
    ENCODER         : Lavf61.7.100
  Duration: 00:23:49.08, start: -0.021000, bitrate: 1257 kb/s
  Stream #0:0: Video: hevc (Main 10), yuv420p10le(tv, bt709, progressive), 1920x1080 [SAR 1:1 DAR 16:9], 23.98 fps, 23.98 tbr, 1k tbn (default)
      Metadata:
        HANDLER_NAME    : VideoHandler
        VENDOR_ID       : [0][0][0][0]
        ENCODER         : Lavc61.19.100 libx265
        BPS             : 1059579
        DURATION        : 00:23:48.969708333
        NUMBER_OF_FRAMES: 34261
        NUMBER_OF_BYTES : 189263214
        _STATISTICS_WRITING_APP: mkvpropedit v66.0.0 ('Josie') 64-bit
        _STATISTICS_WRITING_DATE_UTC: 2025-05-31 09:38:56
        _STATISTICS_TAGS: BPS DURATION NUMBER_OF_FRAMES NUMBER_OF_BYTES
  Stream #0:1: Audio: aac (LC), 48000 Hz, stereo, fltp (default)
      Metadata:
        HANDLER_NAME    : SoundHandler
        VENDOR_ID       : [0][0][0][0]
        ENCODER         : Lavc61.19.100 aac
        BPS             : 194374
        DURATION        : 00:23:49.077000000
        NUMBER_OF_FRAMES: 66989
        NUMBER_OF_BYTES : 34722100
        _STATISTICS_WRITING_APP: mkvpropedit v66.0.0 ('Josie') 64-bit
        _STATISTICS_WRITING_DATE_UTC: 2025-05-31 09:38:56
        _STATISTICS_TAGS: BPS DURATION NUMBER_OF_FRAMES NUMBER_OF_BYTES
Input #1, mov,mp4,m4a,3gp,3g2,mj2, from 'G:\Аниме\Онгоинги\!_36_Осень_2024\DreamCast\Нападение одиночки на иной мир\[DC] Hitoribocchi no Isekai Kouryaku - 02_Telegram.mp4':
  Metadata:
    major_brand     : isom
    minor_version   : 512
    compatible_brands: isomiso2avc1mp41
    encoder         : Lavf61.1.100
  Duration: 00:23:49.03, start: 0.000000, bitrate: 3625 kb/s
  Stream #1:0[0x1](und): Video: h264 (High) (avc1 / 0x31637661), yuv420p(tv, bt709, progressive), 1920x1080 [SAR 1:1 DAR 16:9], 3477 kb/s, 23.98 fps, 23.98 tbr, 24k tbn (default)
      Metadata:
        handler_name    : VideoHandler
        vendor_id       : [0][0][0][0]
        encoder         : Lavc61.3.100 h264_qsv
  Stream #1:1[0x2](und): Audio: aac (HE-AACv2) (mp4a / 0x6134706D), 48000 Hz, stereo, fltp, 144 kb/s (default)
      Metadata:
        handler_name    : SoundHandler
        vendor_id       : [0][0][0][0]
Stream mapping:
  Stream #0:0 (hevc) -> settb:default
  Stream #1:0 (h264) -> settb:default
  ssim:default -> Stream #0:0 (wrapped_avframe)
  Stream #0:1 -> #0:1 (aac (native) -> pcm_s16le (native))
Output #0, null, to 'pipe:':
  Metadata:
    COMPATIBLE_BRANDS: isomiso2avc1mp41
    MAJOR_BRAND     : isom
    MINOR_VERSION   : 512
    encoder         : Lavf61.7.100
  Stream #0:0: Video: wrapped_avframe, yuv420p10le(tv, bt709, progressive), 1920x1080 [SAR 1:1 DAR 16:9], q=2-31, 200 kb/s, 23.98 fps, 23.98 tbn
      Metadata:
        encoder         : Lavc61.19.100 wrapped_avframe
  Stream #0:1: Audio: pcm_s16le, 48000 Hz, stereo, s16, 1536 kb/s (default)
      Metadata:
        HANDLER_NAME    : SoundHandler
        VENDOR_ID       : [0][0][0][0]
        _STATISTICS_TAGS: BPS DURATION NUMBER_OF_FRAMES NUMBER_OF_BYTES
        BPS             : 194374
        DURATION        : 00:23:49.077000000
        NUMBER_OF_FRAMES: 66989
        NUMBER_OF_BYTES : 34722100
        _STATISTICS_WRITING_APP: mkvpropedit v66.0.0 ('Josie') 64-bit
        _STATISTICS_WRITING_DATE_UTC: 2025-05-31 09:38:56
        encoder         : Lavc61.19.100 pcm_s16le
frame=  169 fps=0.0 q=-0.0 size=N/A time=00:00:07.04 bitrate=N/A speed=13.9x    frame=  420 fps=406 q=-0.0 size=N/A time=00:00:17.51 bitrate=N/A speed=16.9x    frame=  634 fps=409 q=-0.0 size=N/A time=00:00:26.44 bitrate=N/A speed=17.1x    frame=  848 fps=413 q=-0.0 size=N/A time=00:00:35.41 bitrate=N/A speed=17.3x    frame= 1117 fps=433 q=-0.0 size=N/A time=00:00:46.58 bitrate=N/A speed=18.1x    frame= 1375 fps=446 q=-0.0 size=N/A time=00:00:57.34 bitrate=N/A speed=18.6x    frame= 1630 fps=452 q=-0.0 size=N/A time=00:01:07.98 bitrate=N/A speed=18.8x    frame= 1827 fps=443 q=-0.0 size=N/A time=00:01:16.20 bitrate=N/A speed=18.5x    frame= 2005 fps=433 q=-0.0 size=N/A time=00:01:23.62 bitrate=N/A speed=18.1x    frame= 2180 fps=423 q=-0.0 size=N/A time=00:01:30.92 bitrate=N/A speed=17.6x    frame= 2325 fps=411 q=-0.0 size=N/A time=00:01:36.97 bitrate=N/A speed=17.1x    frame= 2493 fps=403 q=-0.0 size=N/A time=00:01:43.97 bitrate=N/A speed=16.8x    frame= 2677 fps=400 q=-0.0 size=N/A time=00:01:51.65 bitrate=N/A speed=16.7x    frame= 2836 fps=393 q=-0.0 size=N/A time=00:01:58.28 bitrate=N/A speed=16.4x    frame= 2969 fps=384 q=-0.0 size=N/A time=00:02:03.83 bitrate=N/A speed=  16x    frame= 3113 fps=377 q=-0.0 size=N/A time=00:02:09.83 bitrate=N/A speed=15.7x    frame= 3291 fps=376 q=-0.0 size=N/A time=00:02:17.26 bitrate=N/A speed=15.7x    frame= 3484 fps=375 q=-0.0 size=N/A time=00:02:25.31 bitrate=N/A speed=15.7x    frame= 3707 fps=379 q=-0.0 size=N/A time=00:02:34.61 bitrate=N/A speed=15.8x    frame= 3924 fps=381 q=-0.0 size=N/A time=00:02:43.66 bitrate=N/A speed=15.9x    frame= 4182 fps=387 q=-0.0 size=N/A time=00:02:54.42 bitrate=N/A speed=16.1x    frame= 4430 fps=391 q=-0.0 size=N/A time=00:03:04.76 bitrate=N/A speed=16.3x    frame= 4684 fps=395 q=-0.0 size=N/A time=00:03:15.36 bitrate=N/A speed=16.5x    frame= 4917 fps=397 q=-0.0 size=N/A time=00:03:25.12 bitrate=N/A speed=16.6x    frame= 5172 fps=401 q=-0.0 size=N/A time=00:03:35.71 bitrate=N/A speed=16.7x    frame= 5423 fps=404 q=-0.0 size=N/A time=00:03:46.18 bitrate=N/A speed=16.9x    frame= 5694 fps=409 q=-0.0 size=N/A time=00:03:57.48 bitrate=N/A speed=17.1x    frame= 5931 fps=411 q=-0.0 size=N/A time=00:04:07.37 bitrate=N/A speed=17.1x    frame= 6183 fps=413 q=-0.0 size=N/A time=00:04:17.88 bitrate=N/A speed=17.2x    frame= 6409 fps=414 q=-0.0 size=N/A time=00:04:27.30 bitrate=N/A speed=17.3x    frame= 6654 fps=417 q=-0.0 size=N/A time=00:04:37.52 bitrate=N/A speed=17.4x    frame= 6898 fps=418 q=-0.0 size=N/A time=00:04:47.70 bitrate=N/A speed=17.4x    frame= 7137 fps=419 q=-0.0 size=N/A time=00:04:57.67 bitrate=N/A speed=17.5x    frame= 7403 fps=423 q=-0.0 size=N/A time=00:05:08.76 bitrate=N/A speed=17.6x    frame= 7645 fps=424 q=-0.0 size=N/A time=00:05:18.86 bitrate=N/A speed=17.7x    frame= 7883 fps=425 q=-0.0 size=N/A time=00:05:28.78 bitrate=N/A speed=17.7x    frame= 8138 fps=427 q=-0.0 size=N/A time=00:05:39.42 bitrate=N/A speed=17.8x    frame= 8409 fps=429 q=-0.0 size=N/A time=00:05:50.72 bitrate=N/A speed=17.9x    frame= 8633 fps=429 q=-0.0 size=N/A time=00:06:00.06 bitrate=N/A speed=17.9x    frame= 8874 fps=430 q=-0.0 size=N/A time=00:06:10.11 bitrate=N/A speed=  18x    frame= 9121 fps=431 q=-0.0 size=N/A time=00:06:20.42 bitrate=N/A speed=  18x    frame= 9367 fps=433 q=-0.0 size=N/A time=00:06:30.68 bitrate=N/A speed=  18x    frame= 9592 fps=433 q=-0.0 size=N/A time=00:06:40.06 bitrate=N/A speed=  18x    frame= 9800 fps=432 q=-0.0 size=N/A time=00:06:48.74 bitrate=N/A speed=  18x    frame=10037 fps=433 q=-0.0 size=N/A time=00:06:58.62 bitrate=N/A speed=  18x    frame=10279 fps=433 q=-0.0 size=N/A time=00:07:08.71 bitrate=N/A speed=18.1x    frame=10532 fps=435 q=-0.0 size=N/A time=00:07:19.27 bitrate=N/A speed=18.1x    frame=10778 fps=436 q=-0.0 size=N/A time=00:07:29.53 bitrate=N/A speed=18.2x    frame=11012 fps=436 q=-0.0 size=N/A time=00:07:39.29 bitrate=N/A speed=18.2x    frame=11244 fps=436 q=-0.0 size=N/A time=00:07:48.96 bitrate=N/A speed=18.2x    frame=11491 fps=437 q=-0.0 size=N/A time=00:07:59.27 bitrate=N/A speed=18.2x    frame=11725 fps=437 q=-0.0 size=N/A time=00:08:09.03 bitrate=N/A speed=18.2x    frame=11964 fps=438 q=-0.0 size=N/A time=00:08:18.99 bitrate=N/A speed=18.3x    frame=12231 fps=439 q=-0.0 size=N/A time=00:08:30.13 bitrate=N/A speed=18.3x    frame=12462 fps=439 q=-0.0 size=N/A time=00:08:39.76 bitrate=N/A speed=18.3x    frame=12701 fps=440 q=-0.0 size=N/A time=00:08:49.73 bitrate=N/A speed=18.3x    frame=12917 fps=439 q=-0.0 size=N/A time=00:08:58.74 bitrate=N/A speed=18.3x    frame=13158 fps=440 q=-0.0 size=N/A time=00:09:08.79 bitrate=N/A speed=18.3x    frame=13398 fps=440 q=-0.0 size=N/A time=00:09:18.80 bitrate=N/A speed=18.4x    frame=13606 fps=440 q=-0.0 size=N/A time=00:09:27.48 bitrate=N/A speed=18.3x    frame=13842 fps=440 q=-0.0 size=N/A time=00:09:37.32 bitrate=N/A speed=18.3x    frame=14070 fps=440 q=-0.0 size=N/A time=00:09:46.83 bitrate=N/A speed=18.4x    frame=14270 fps=439 q=-0.0 size=N/A time=00:09:55.17 bitrate=N/A speed=18.3x    frame=14469 fps=438 q=-0.0 size=N/A time=00:10:03.47 bitrate=N/A speed=18.3x    frame=14633 fps=437 q=-0.0 size=N/A time=00:10:10.31 bitrate=N/A speed=18.2x    frame=14777 fps=434 q=-0.0 size=N/A time=00:10:16.32 bitrate=N/A speed=18.1x    frame=14934 fps=432 q=-0.0 size=N/A time=00:10:22.87 bitrate=N/A speed=  18x    frame=15110 fps=431 q=-0.0 size=N/A time=00:10:30.21 bitrate=N/A speed=  18x    frame=15280 fps=429 q=-0.0 size=N/A time=00:10:37.30 bitrate=N/A speed=17.9x    frame=15519 fps=430 q=-0.0 size=N/A time=00:10:47.27 bitrate=N/A speed=17.9x    frame=15745 fps=430 q=-0.0 size=N/A time=00:10:56.69 bitrate=N/A speed=17.9x    frame=15952 fps=429 q=-0.0 size=N/A time=00:11:05.33 bitrate=N/A speed=17.9x    frame=16193 fps=430 q=-0.0 size=N/A time=00:11:15.38 bitrate=N/A speed=17.9x    frame=16416 fps=430 q=-0.0 size=N/A time=00:11:24.68 bitrate=N/A speed=17.9x    frame=16648 fps=430 q=-0.0 size=N/A time=00:11:34.36 bitrate=N/A speed=17.9x    frame=16872 fps=430 q=-0.0 size=N/A time=00:11:43.70 bitrate=N/A speed=17.9x    frame=17105 fps=430 q=-0.0 size=N/A time=00:11:53.42 bitrate=N/A speed=  18x    frame=17307 fps=430 q=-0.0 size=N/A time=00:12:01.84 bitrate=N/A speed=17.9x    frame=17547 fps=430 q=-0.0 size=N/A time=00:12:11.85 bitrate=N/A speed=  18x    frame=17782 fps=431 q=-0.0 size=N/A time=00:12:21.65 bitrate=N/A speed=  18x    frame=18005 fps=431 q=-0.0 size=N/A time=00:12:30.95 bitrate=N/A speed=  18x    frame=18185 fps=430 q=-0.0 size=N/A time=00:12:38.46 bitrate=N/A speed=17.9x    frame=18368 fps=429 q=-0.0 size=N/A time=00:12:46.09 bitrate=N/A speed=17.9x    frame=18581 fps=429 q=-0.0 size=N/A time=00:12:54.98 bitrate=N/A speed=17.9x    frame=18769 fps=428 q=-0.0 size=N/A time=00:13:02.82 bitrate=N/A speed=17.8x    frame=18999 fps=428 q=-0.0 size=N/A time=00:13:12.41 bitrate=N/A speed=17.9x    frame=19247 fps=429 q=-0.0 size=N/A time=00:13:22.76 bitrate=N/A speed=17.9x    frame=19453 fps=428 q=-0.0 size=N/A time=00:13:31.35 bitrate=N/A speed=17.9x    frame=19686 fps=429 q=-0.0 size=N/A time=00:13:41.07 bitrate=N/A speed=17.9x    frame=19927 fps=429 q=-0.0 size=N/A time=00:13:51.12 bitrate=N/A speed=17.9x    frame=20147 fps=429 q=-0.0 size=N/A time=00:14:00.29 bitrate=N/A speed=17.9x    frame=20379 fps=429 q=-0.0 size=N/A time=00:14:09.97 bitrate=N/A speed=17.9x    frame=20610 fps=429 q=-0.0 size=N/A time=00:14:19.60 bitrate=N/A speed=17.9x    frame=20823 fps=429 q=-0.0 size=N/A time=00:14:28.49 bitrate=N/A speed=17.9x    frame=21050 fps=429 q=-0.0 size=N/A time=00:14:37.96 bitrate=N/A speed=17.9x    frame=21303 fps=430 q=-0.0 size=N/A time=00:14:48.51 bitrate=N/A speed=17.9x    frame=21539 fps=430 q=-0.0 size=N/A time=00:14:58.35 bitrate=N/A speed=17.9x    frame=21769 fps=430 q=-0.0 size=N/A time=00:15:07.94 bitrate=N/A speed=  18x    frame=22001 fps=431 q=-0.0 size=N/A time=00:15:17.62 bitrate=N/A speed=  18x    frame=22217 fps=431 q=-0.0 size=N/A time=00:15:26.63 bitrate=N/A speed=  18x    frame=22448 fps=431 q=-0.0 size=N/A time=00:15:36.26 bitrate=N/A speed=  18x    frame=22689 fps=431 q=-0.0 size=N/A time=00:15:46.32 bitrate=N/A speed=  18x    frame=22928 fps=431 q=-0.0 size=N/A time=00:15:56.28 bitrate=N/A speed=  18x    frame=23172 fps=432 q=-0.0 size=N/A time=00:16:06.46 bitrate=N/A speed=  18x    frame=23393 fps=432 q=-0.0 size=N/A time=00:16:15.68 bitrate=N/A speed=  18x    frame=23591 fps=431 q=-0.0 size=N/A time=00:16:23.94 bitrate=N/A speed=  18x    frame=23833 fps=432 q=-0.0 size=N/A time=00:16:34.03 bitrate=N/A speed=  18x    frame=24049 fps=432 q=-0.0 size=N/A time=00:16:43.04 bitrate=N/A speed=  18x    frame=24227 fps=431 q=-0.0 size=N/A time=00:16:50.46 bitrate=N/A speed=  18x    frame=24462 fps=431 q=-0.0 size=N/A time=00:17:00.26 bitrate=N/A speed=  18x    frame=24724 fps=432 q=-0.0 size=N/A time=00:17:11.19 bitrate=N/A speed=  18x    frame=24958 fps=432 q=-0.0 size=N/A time=00:17:20.95 bitrate=N/A speed=  18x    frame=25174 fps=432 q=-0.0 size=N/A time=00:17:29.96 bitrate=N/A speed=  18x    frame=25393 fps=432 q=-0.0 size=N/A time=00:17:39.09 bitrate=N/A speed=  18x    frame=25604 fps=431 q=-0.0 size=N/A time=00:17:47.90 bitrate=N/A speed=  18x    frame=25815 fps=431 q=-0.0 size=N/A time=00:17:56.70 bitrate=N/A speed=  18x    frame=26042 fps=431 q=-0.0 size=N/A time=00:18:06.16 bitrate=N/A speed=  18x    frame=26260 fps=431 q=-0.0 size=N/A time=00:18:15.26 bitrate=N/A speed=  18x    frame=26496 fps=431 q=-0.0 size=N/A time=00:18:25.10 bitrate=N/A speed=  18x    frame=26743 fps=432 q=-0.0 size=N/A time=00:18:35.40 bitrate=N/A speed=  18x    frame=26954 fps=432 q=-0.0 size=N/A time=00:18:44.20 bitrate=N/A speed=  18x    frame=27212 fps=432 q=-0.0 size=N/A time=00:18:54.96 bitrate=N/A speed=  18x    frame=27479 fps=433 q=-0.0 size=N/A time=00:19:06.10 bitrate=N/A speed=  18x    frame=27745 fps=433 q=-0.0 size=N/A time=00:19:17.19 bitrate=N/A speed=18.1x    frame=27987 fps=434 q=-0.0 size=N/A time=00:19:27.29 bitrate=N/A speed=18.1x    frame=28243 fps=434 q=-0.0 size=N/A time=00:19:37.96 bitrate=N/A speed=18.1x    frame=28519 fps=435 q=-0.0 size=N/A time=00:19:49.47 bitrate=N/A speed=18.1x    frame=28776 fps=436 q=-0.0 size=N/A time=00:20:00.19 bitrate=N/A speed=18.2x    frame=29021 fps=436 q=-0.0 size=N/A time=00:20:10.41 bitrate=N/A speed=18.2x    frame=29279 fps=436 q=-0.0 size=N/A time=00:20:21.17 bitrate=N/A speed=18.2x    frame=29520 fps=437 q=-0.0 size=N/A time=00:20:31.23 bitrate=N/A speed=18.2x    frame=29758 fps=437 q=-0.0 size=N/A time=00:20:41.15 bitrate=N/A speed=18.2x    frame=29959 fps=436 q=-0.0 size=N/A time=00:20:49.53 bitrate=N/A speed=18.2x    frame=30196 fps=437 q=-0.0 size=N/A time=00:20:59.42 bitrate=N/A speed=18.2x    frame=30449 fps=437 q=-0.0 size=N/A time=00:21:09.97 bitrate=N/A speed=18.2x    frame=30701 fps=437 q=-0.0 size=N/A time=00:21:20.48 bitrate=N/A speed=18.2x    frame=30964 fps=438 q=-0.0 size=N/A time=00:21:31.45 bitrate=N/A speed=18.3x    frame=31223 fps=438 q=-0.0 size=N/A time=00:21:42.30 bitrate=N/A speed=18.3x    frame=31451 fps=438 q=-0.0 size=N/A time=00:21:51.76 bitrate=N/A speed=18.3x    frame=31665 fps=438 q=-0.0 size=N/A time=00:22:00.69 bitrate=N/A speed=18.3x    frame=31908 fps=438 q=-0.0 size=N/A time=00:22:10.82 bitrate=N/A speed=18.3x    frame=32139 fps=438 q=-0.0 size=N/A time=00:22:20.46 bitrate=N/A speed=18.3x    frame=32337 fps=438 q=-0.0 size=N/A time=00:22:28.72 bitrate=N/A speed=18.3x    frame=32558 fps=438 q=-0.0 size=N/A time=00:22:37.93 bitrate=N/A speed=18.3x    frame=32762 fps=438 q=-0.0 size=N/A time=00:22:46.44 bitrate=N/A speed=18.3x    frame=32962 fps=437 q=-0.0 size=N/A time=00:22:54.79 bitrate=N/A speed=18.2x    frame=33147 fps=437 q=-0.0 size=N/A time=00:23:02.50 bitrate=N/A speed=18.2x    frame=33302 fps=436 q=-0.0 size=N/A time=00:23:08.97 bitrate=N/A speed=18.2x    frame=33497 fps=436 q=-0.0 size=N/A time=00:23:17.10 bitrate=N/A speed=18.2x    frame=33752 fps=436 q=-0.0 size=N/A time=00:23:27.78 bitrate=N/A speed=18.2x    frame=33993 fps=436 q=-0.0 size=N/A time=00:23:37.79 bitrate=N/A speed=18.2x    frame=34228 fps=436 q=-0.0 size=N/A time=00:23:47.59 bitrate=N/A speed=18.2x    [Parsed_ssim_10 @ 00000261a0328f80] SSIM Y:0.993303 (21.741194) U:0.992585 (21.298702) V:0.992596 (21.305092) All:0.993065 (21.589770)
[out#0/null @ 00000261a0294ac0] video:14722KiB audio:267956KiB subtitle:0KiB other streams:0KiB global headers:0KiB muxing overhead: unknown
frame=34261 fps=436 q=-0.0 Lsize=N/A time=00:23:48.96 bitrate=N/A speed=18.2x    
